:SAMPLES-PER-SECOND 30
:FULLY-SPECIFIED
:DEGREES
16
root  11.0327 40.4385 -5.84381 -39.2668 -86.5661 34.7685
RightUpLeg  -1.04628 -11.8006 -14.1557
RightLeg  5.43211 0.720451 2.06313
RightFoot  2.06864 -0.937546 8.06447
RightToes  0.00048216 0.542163 -0.142577
Spine  7.88435 -0.189097 -3.31062
Spine1  0.790956 -0.587014 1.24081
HEad  0.477945 0.930272 1.13035
LeftShoulder1  1.67718 -3.15343 -18.5225
LeftArm  -23.0447 13.8321 -7.44293
LeftForeArm  16.4924 -7.02174 0.212357
LeftHand  -0.25398 0.0180481 5.50724
RightShoulder  0.873881 0.617497 14.3336
RightArm  -23.7314 -14.7367 6.60354
RightForeArm  10.8246 16.0577 3.05699
RightHand  -2.53003 10.1147 -19.2325
LeftUpLeg  -0.458574 6.33044 3.51747
LeftLeg  9.66359 3.6947 -1.52173
LeftFoot  -4.7127 0.171507 -2.38557
LeftToes  1.06241e-005 4.65855e-005 -8.18508e-006
17
root  11.051 40.435 -5.84077 -38.59 -86.462 34.0741
RightUpLeg  -1.04473 -11.8347 -14.2073
RightLeg  5.46613 0.642519 2.058
RightFoot  2.06843 -0.93999 8.1026
RightToes  0.00048216 0.542163 -0.142577
Spine  8.05397 -0.242237 -3.25297
Spine1  1.16447 -0.665396 1.31805
HEad  0.326174 1.02524 0.619812
LeftShoulder1  2.23568 -4.42508 -21.738
LeftArm  -23.3351 15.7012 -7.20892
LeftForeArm  17.423 -10.6652 -0.251019
LeftHand  -0.25398 0.0180481 5.50724
RightShoulder  1.12124 1.26699 16.8327
RightArm  -24.3639 -16.5881 7.24272
RightForeArm  8.63714 19.9665 3.86747
RightHand  -2.74644 10.3649 -20.4857
LeftUpLeg  -0.528288 6.32844 3.46347
LeftLeg  9.73865 3.61048 -1.50008
LeftFoot  -4.69432 0.174236 -2.42802
LeftToes  1.06241e-005 4.65855e-005 -8.18508e-006
18
root  11.0747 40.4318 -5.83285 -37.6665 -86.2908 33.1567
RightUpLeg  -1.06115 -11.9143 -14.3011
RightLeg  5.52223 0.53589 2.06838
RightFoot  2.09307 -0.939684 8.08477
RightToes  0.00048216 0.542163 -0.142577
Spine  7.95547 -0.387201 -3.23006
Spine1  2.14154 -0.844543 1.41036
HEad  -0.401201 1.39978 -0.20126
LeftShoulder1  3.04473 -5.90928 -26.1433
LeftArm  -24.8473 17.5811 -6.62638
LeftForeArm  19.7964 -15.035 -1.03783
LeftHand  -0.25398 0.0180481 5.50724
RightShoulder  1.51428 2.18834 20.1714
RightArm  -24.3951 -17.9775 7.64051
RightForeArm  6.53456 23.528 4.69443
RightHand  -2.98863 10.8685 -21.563
LeftUpLeg  -0.635296 6.26792 3.34584
LeftLeg  9.78316 3.54064 -1.46511
LeftFoot  -4.61617 0.170164 -2.36469
LeftToes  1.06241e-005 4.65855e-005 -8.18508e-006
19
root  11.106 40.4281 -5.81317 -37.3361 -86.0514 32.8151
RightUpLeg  -1.04543 -12.0741 -14.522
RightLeg  5.5656 0.513351 2.10919
RightFoot  2.12758 -0.949712 8.15275
RightToes  0.00048216 0.542163 -0.142577
Spine  7.62601 -0.626076 -3.11576
Spine1  3.68649 -1.0374 1.11658
HEad  -1.84234 1.8788 -0.804794
LeftShoulder1  3.94897 -7.20773 -30.7942
LeftArm  -27.4448 18.7344 -6.58983
LeftForeArm  22.9113 -18.9557 -2.17121
LeftHand  -0.25398 0.0180481 5.50724
RightShoulder  2.05527 3.26139 24.2025
RightArm  -24.444 -18.6546 8.21875
RightForeArm  6.58072 26.1406 5.26645
RightHand  -3.03908 11.1337 -21.5724
LeftUpLeg  -0.714332 6.15013 3.13742
LeftLeg  9.78217 3.50545 -1.45434
LeftFoot  -4.50962 0.159767 -2.20299
LeftToes  1.06241e-005 4.65855e-005 -8.18508e-006
20
root  11.1469 40.4205 -5.77518 -38.0746 -85.7824 33.4665
RightUpLeg  -0.962499 -12.3082 -14.8906
RightLeg  5.59491 0.612134 2.16345
RightFoot  2.14437 -0.976083 8.36557
RightToes  0.00048216 0.542163 -0.142577
Spine  7.3798 -0.84571 -2.78706
Spine1  5.15958 -1.08136 0.319768
HEad  -3.34697 2.18733 -1.00453
LeftShoulder1  4.93776 -8.48789 -35.0858
LeftArm  -28.5343 18.8383 -7.29805
LeftForeArm  23.7791 -21.0963 -3.00098
LeftHand  -0.25398 0.0180481 5.50724
RightShoulder  2.64942 4.25848 28.1225
RightArm  -24.8611 -18.84 9.76067
RightForeArm  8.47246 27.4577 5.46736
RightHand  -2.88061 10.8922 -20.7848
LeftUpLeg  -0.71177 6.00034 2.83998
LeftLeg  9.78153 3.52274 -1.4591
LeftFoot  -4.43788 0.15251 -2.08852
LeftToes  1.06241e-005 4.65855e-005 -8.18508e-006
